<?xml version="1.0"?>
<svg xmlns="http://www.w3.org/2000/svg" xmlns:xlink="http://www.w3.org/1999/xlink" xmlns:svgjs="http://svgjs.com/svgjs" version="1.1" width="512" height="512" x="0" y="0" viewBox="0 0 64 64" style="enable-background:new 0 0 512 512" xml:space="preserve" class=""><g><g xmlns="http://www.w3.org/2000/svg" id="outline"><path d="m2.293 28.293a1 1 0 0 0 .707 1.707h16v.219a7.983 7.983 0 0 0 7.1 7.725 5.005 5.005 0 0 0 4.9 4.056h2a5.005 5.005 0 0 0 4.905-4.056 7.983 7.983 0 0 0 7.095-7.725v-.219h16a1 1 0 0 0 .707-1.707l-4.056-4.056a20.618 20.618 0 0 0 -11.651-5.992v-.245a14 14 0 0 0 -28 0v.245a20.618 20.618 0 0 0 -11.651 5.992zm30.707 11.707h-2a3.006 3.006 0 0 1 -2.829-2h7.658a3.006 3.006 0 0 1 -2.829 2zm10-9.781a5.973 5.973 0 0 1 -6 5.781h-10a5.973 5.973 0 0 1 -6-5.781v-.219h22zm-11-24.219a12.013 12.013 0 0 1 12 12h-7v-1a4.961 4.961 0 0 0 -1.279-3.307l1.986-1.986-1.414-1.414-2.193 2.188a4.847 4.847 0 0 0 -4.21 0l-2.188-2.188-1.414 1.414 1.986 1.986a4.961 4.961 0 0 0 -1.274 3.307v1h-7a12.013 12.013 0 0 1 12-12zm12 15a1 1 0 1 1 -1-1 1 1 0 0 1 1 1zm-13-5v2h-2v-1a3 3 0 0 1 6 0v1h-2v-2zm2 5a1 1 0 1 1 -1-1 1 1 0 0 1 1 1zm-12-1a1 1 0 1 1 -1 1 1 1 0 0 1 1-1zm-2.893.25a2.953 2.953 0 0 0 -.107.75 3 3 0 0 0 6 0 2.966 2.966 0 0 0 -.184-1h5.368a2.966 2.966 0 0 0 -.184 1 3 3 0 0 0 6 0 2.966 2.966 0 0 0 -.184-1h5.368a2.966 2.966 0 0 0 -.184 1 3 3 0 0 0 6 0 2.953 2.953 0 0 0 -.107-.75 18.686 18.686 0 0 1 10.344 5.4l2.349 2.35h-53.172l2.349-2.349a18.686 18.686 0 0 1 10.344-5.401z" fill="#ffffff" data-original="#000000" style=""/><path d="m25 32h2v2h-2z" fill="#ffffff" data-original="#000000" style=""/><path d="m37 32h2v2h-2z" fill="#ffffff" data-original="#000000" style=""/><path d="m51 25h2v2h-2z" fill="#ffffff" data-original="#000000" style=""/><path d="m47 23h2v2h-2z" fill="#ffffff" data-original="#000000" style=""/><path d="m36 59v-5a5.006 5.006 0 0 0 -5-5 3 3 0 0 1 -3-3v-3h-2v3a5.006 5.006 0 0 0 5 5 3 3 0 0 1 3 3v5z" fill="#ffffff" data-original="#000000" style=""/><path d="m46 59v-5a5.006 5.006 0 0 0 -5-5 3 3 0 0 1 -3-3v-3h-2v3a5.006 5.006 0 0 0 5 5 3 3 0 0 1 3 3v5z" fill="#ffffff" data-original="#000000" style=""/></g></g></svg>
